<svg width="24" height="24" viewBox="0 0 24 24" fill="none" xmlns="http://www.w3.org/2000/svg">
<path d="M3.00002 4.99999H21C21.1823 5.00056 21.3609 5.05082 21.5167 5.14536C21.6725 5.23991 21.7996 5.37515 21.8842 5.53654C21.9689 5.69793 22.0079 5.87935 21.9971 6.06127C21.9863 6.24319 21.9262 6.41873 21.823 6.56899L12.823 19.569C12.45 20.108 11.552 20.108 11.178 19.569L2.17802 6.56899C2.07385 6.41904 2.01276 6.24342 2.00139 6.06119C1.99002 5.87897 2.02881 5.69711 2.11354 5.53538C2.19827 5.37365 2.3257 5.23823 2.48199 5.14384C2.63828 5.04945 2.81744 4.9997 3.00002 4.99999Z" fill="white"/>
</svg>
