<svg width="17" height="17" viewBox="0 0 17 17" fill="none" xmlns="http://www.w3.org/2000/svg">
<g clip-path="url(#clip0_120_6)">
<path d="M2.75232 4.61428C2.75232 3.85738 3.37161 3.23809 4.12851 3.23809C4.88541 3.23809 5.5047 3.85738 5.5047 4.61428C5.5047 5.37119 4.88541 5.99047 4.12851 5.99047C3.37161 5.99047 2.75232 5.37119 2.75232 4.61428ZM4.12851 10.119C4.88541 10.119 5.5047 9.49976 5.5047 8.74285C5.5047 7.98595 4.88541 7.36666 4.12851 7.36666C3.37161 7.36666 2.75232 7.98595 2.75232 8.74285C2.75232 9.49976 3.37161 10.119 4.12851 10.119ZM8.25708 5.99047C9.01399 5.99047 9.63327 5.37119 9.63327 4.61428C9.63327 3.85738 9.01399 3.23809 8.25708 3.23809C7.50018 3.23809 6.88089 3.85738 6.88089 4.61428C6.88089 5.37119 7.50018 5.99047 8.25708 5.99047ZM12.3857 7.36666C11.6287 7.36666 11.0095 7.98595 11.0095 8.74285C11.0095 9.49976 11.6287 10.119 12.3857 10.119C13.1426 10.119 13.7618 9.49976 13.7618 8.74285C13.7618 7.98595 13.1426 7.36666 12.3857 7.36666ZM12.3719 11.4952C11.8627 11.4952 11.4292 11.7705 11.1884 12.1833H9.4406C9.20665 11.7705 8.76627 11.4952 8.25708 11.4952C7.74789 11.4952 7.31439 11.7705 7.07356 12.1833H5.78682L7.89927 10.0709C8.01625 10.0984 8.13322 10.119 8.25708 10.119C9.01399 10.119 9.63327 9.49976 9.63327 8.74285C9.63327 8.619 9.61263 8.50202 9.58511 8.39192L12.0347 5.9423C12.1448 5.96983 12.2618 5.99047 12.3857 5.99047C13.1426 5.99047 13.7618 5.37119 13.7618 4.61428C13.7618 3.85738 13.1426 3.23809 12.3857 3.23809C11.6287 3.23809 11.0095 3.85738 11.0095 4.61428C11.0095 4.73814 11.0301 4.85511 11.0576 4.96521L8.60801 7.41483C8.49791 7.3873 8.38094 7.36666 8.25708 7.36666C7.50018 7.36666 6.88089 7.98595 6.88089 8.74285C6.88089 8.86671 6.90153 8.98369 6.92906 9.09378L4.47944 11.5434C4.36934 11.5159 4.25237 11.4952 4.12851 11.4952C3.37161 11.4952 2.75232 12.1145 2.75232 12.8714C2.75232 13.6283 3.37161 14.2476 4.12851 14.2476C4.6377 14.2476 5.0712 13.9724 5.31203 13.5595H7.08044C7.31439 13.9724 7.75477 14.2476 8.26396 14.2476C8.77315 14.2476 9.20665 13.9724 9.44749 13.5595H11.2021C11.4361 13.9724 11.8765 14.2476 12.3857 14.2476C13.1426 14.2476 13.7618 13.6283 13.7618 12.8714C13.7481 12.1145 13.1288 11.4952 12.3719 11.4952Z" fill="url(#paint0_linear_120_6)"/>
</g>
<defs>
<linearGradient id="paint0_linear_120_6" x1="8.25708" y1="3.23809" x2="8.25708" y2="14.2476" gradientUnits="userSpaceOnUse">
<stop stop-color="#FF630B"/>
<stop offset="1" stop-color="#FF053F"/>
</linearGradient>
<clipPath id="clip0_120_6">
<rect width="16.5143" height="16.5143" fill="white" transform="translate(0 0.485718)"/>
</clipPath>
</defs>
</svg>
